<?xml version="1.0" standalone="no"?>
<!DOCTYPE svg PUBLIC "-//W3C//DTD SVG 20010904//EN"
 "http://www.w3.org/TR/2001/REC-SVG-20010904/DTD/svg10.dtd">
<svg version="1.0" xmlns="http://www.w3.org/2000/svg"
 width="512.000000pt" height="512.000000pt" viewBox="0 0 512.000000 512.000000"
 preserveAspectRatio="xMidYMid meet">
<metadata>
Created by potrace 1.14, written by Peter Selinger 2001-2017
</metadata>
<g transform="translate(0.000000,512.000000) scale(0.100000,-0.100000)"
fill="#000000" stroke="none">
<path d="M16 5105 c-17 -13 -18 -25 -12 -179 4 -91 8 -173 10 -183 2 -10 7
-43 10 -74 4 -31 9 -67 11 -80 3 -13 8 -40 11 -59 21 -123 86 -320 133 -403
64 -115 145 -209 217 -254 l46 -28 -7 -68 c-3 -37 -8 -76 -10 -85 -2 -10 -6
-47 -9 -82 -3 -36 -9 -96 -13 -135 -16 -153 -7 -702 12 -800 2 -11 7 -42 10
-70 11 -85 54 -278 81 -366 156 -502 454 -855 896 -1064 133 -62 198 -86 198
-71 0 30 22 34 76 15 29 -10 60 -19 68 -19 27 0 27 -19 1 -117 -66 -241 -171
-466 -345 -737 -84 -131 -100 -181 -71 -218 17 -21 28 -23 108 -24 254 -3 550
119 799 328 196 164 372 387 445 563 13 32 29 55 38 56 9 1 27 2 41 4 14 1 66
5 115 9 87 6 316 40 363 52 23 7 24 5 24 -56 0 -88 -1 -90 -27 -90 -20 0 -25
-5 -26 -27 -9 -201 -67 -409 -173 -621 -58 -116 -64 -151 -32 -189 22 -25 30
-28 102 -29 353 -8 677 287 907 826 67 158 161 446 181 554 7 35 23 56 78 96
78 58 288 264 360 355 270 338 469 807 483 1135 5 95 -13 150 -63 204 -25 26
-134 86 -157 86 -5 0 -23 26 -40 57 -51 99 -157 191 -285 250 -64 29 -200 71
-257 79 -26 3 -51 8 -54 10 -12 7 -179 17 -279 17 -271 -1 -535 -47 -805 -139
-211 -72 -428 -196 -734 -418 -258 -187 -416 -277 -566 -322 -171 -50 -384
-33 -552 45 -223 105 -335 305 -334 595 1 61 3 122 6 136 3 14 7 41 10 60 3
19 10 59 17 88 l11 53 95 45 c106 51 156 84 226 152 192 185 309 474 333 818
5 86 5 92 -17 107 -26 18 -46 13 -87 -23 -111 -99 -222 -145 -388 -160 -140
-13 -212 -44 -290 -126 -30 -31 -55 -61 -55 -68 0 -6 -16 18 -35 54 -19 35
-50 79 -67 98 -72 73 -179 120 -283 123 -101 3 -180 53 -292 183 -13 14 -23
28 -23 31 0 3 -13 23 -29 46 -17 22 -31 44 -33 49 -6 16 -53 20 -72 5z"/>
</g>
</svg>
